HIERARCHY
ROOT Hips
{
  OFFSET 0 0 0
  CHANNELS 6 Xposition Yposition Zposition Zrotation Yrotation Xrotation
  JOINT LeftThigh
  {
    OFFSET 8.409438 0 -5.917753
    CHANNELS 3 Zrotation Yrotation Xrotation
    JOINT LeftLeg
    {
      OFFSET 0 0 -42.358652
      CHANNELS 3 Zrotation Yrotation Xrotation
      JOINT LeftFoot
      {
        OFFSET 0 0 -39.357303
        CHANNELS 3 Zrotation Yrotation Xrotation
      }
    }
  }
  JOINT RightThigh
  {
    OFFSET -8.409438 0 -5.917753
    CHANNELS 3 Zrotation Yrotation Xrotation
    JOINT RightLeg
    {
      OFFSET 0 0 -42.358652
      CHANNELS 3 Zrotation Yrotation Xrotation
      JOINT RightFoot
      {
        OFFSET 0 0 -39.357303
        CHANNELS 3 Zrotation Yrotation Xrotation
      }
    }
  }
  JOINT SpineLow
  {
    OFFSET 0 0 4.719101
    CHANNELS 3 Zrotation Yrotation Xrotation
    JOINT SpineMid
    {
      OFFSET 0 0 12.899191
      CHANNELS 3 Zrotation Yrotation Xrotation
      JOINT Chest
      {
        OFFSET 0 0 12.899191
        CHANNELS 3 Zrotation Yrotation Xrotation
        JOINT LeftShoulder
        {
          OFFSET 7.550562 1.41573 9.438202
          CHANNELS 3 Zrotation Yrotation Xrotation
          JOINT LeftArm
          {
            OFFSET 9.155056 0 4.247191
            CHANNELS 3 Zrotation Yrotation Xrotation
            JOINT LeftForearm
            {
              OFFSET 0 0 25.771955
              CHANNELS 3 Zrotation Yrotation Xrotation
              JOINT LeftHand
              {
                OFFSET 0 0 25.197169
                CHANNELS 3 Zrotation Yrotation Xrotation
              }
            }
          }
        }
        JOINT RightShoulder
        {
          OFFSET -7.550562 1.41573 9.438202
          CHANNELS 3 Zrotation Yrotation Xrotation
          JOINT RightArm
          {
            OFFSET -9.155056 0 4.247191
            CHANNELS 3 Zrotation Yrotation Xrotation
            JOINT RightForearm
            {
              OFFSET 0 0 -25.771955
              CHANNELS 3 Zrotation Yrotation Xrotation
              JOINT RightHand
              {
                OFFSET 0 0 -25.197169
                CHANNELS 3 Zrotation Yrotation Xrotation
              }
            }
          }
        }
        JOINT Neck
        {
          OFFSET 0 0 15.101124
          CHANNELS 3 Zrotation Yrotation Xrotation
          JOINT Head
          {
            OFFSET 0 0 11.325843
            CHANNELS 3 Zrotation Yrotation Xrotation
            End Site
            {
              OFFSET 0 0 14.157303
            }
          }
        }
      }
    }
  }
}
MOTION
Frames: 16
Frame Time: 0.0
0.0  93.25843  0.0  -3.474599  13.94117  -88.983994  2.591789  -17.837169  -11.059972  -10.136062  2.644706  16.372575  8.693809  0.30199  5.270847  -20.426823  3.722552  -4.196027  -9.766742  5.60046  6.265901  2.22429  1.782001  0.761014  2.348431  -1.49575  -0.613858  6.464112  -4.024087  -1.823481  6.464112  -4.024087  -1.82348  -6.988299  30.578355  -4.419577  149.794802  28.216935  -175.244733  -14.235281  4.362804  105.898391  72.798984  5.708182  9.04805  5.16325  -2.332306  11.727711  -71.895694  80.071328  -117.697622  -51.96424  18.679893  -108.321479  72.041569  -0.500818  26.125108  -19.710507  8.479839  9.245836  -14.888693  6.071268  7.205879  
0.0  93.25843  0.0  -3.217915  13.455913  -88.697308  2.870639  -17.321999  -10.778734  -10.052645  2.13086  15.833615  8.827035  0.291395  5.34583  -20.43307  3.69501  -4.778203  -9.64843  5.915263  6.595492  2.400366  1.828197  0.726223  2.613093  -1.286512  -0.647895  7.182532  -3.44152  -1.909171  7.182531  -3.44152  -1.909171  -5.59894  29.42655  -2.849277  152.414333  27.055802  -177.300895  -17.402675  9.385441  104.379593  71.263905  8.368839  8.174035  5.528104  -2.242954  10.250441  -93.046273  77.93631  -138.474234  -54.296345  22.941979  -106.508719  72.193934  -1.941894  32.197091  -20.070799  7.994467  9.568846  -15.158644  5.690911  7.438586  
0.0  93.25843  0.0  -2.947408  12.508842  -88.426121  3.193238  -16.797982  -10.319933  -10.151994  1.64514  14.924892  9.123179  0.362439  5.500669  -20.335871  3.667622  -5.435304  -9.364025  6.217246  6.952483  3.21166  2.012213  0.792291  2.822691  -1.087043  -0.688278  7.750337  -2.88608  -2.006391  7.750337  -2.88608  -2.006392  -3.986962  28.538955  -0.937363  155.541702  26.181071  -178.764424  -21.935345  15.949453  102.574427  68.400568  10.855146  7.166219  6.303931  -1.897439  8.980924  -108.132754  74.858611  -153.476653  -56.546502  27.395254  -104.315774  72.145001  -3.693381  37.775361  -19.991647  7.651365  9.9358  -15.100934  5.422422  7.702175  
0.0  93.25843  0.0  -2.705234  11.026576  -88.119754  3.5808  -16.363456  -9.768617  -9.538474  1.146322  14.353508  9.346185  0.468444  5.550277  -19.999868  3.627755  -6.172556  -9.004387  6.453693  7.299571  3.392118  2.026257  0.766018  3.148542  -0.877918  -0.757123  8.635969  -2.296265  -2.180499  8.63597  -2.296265  -2.180499  -3.151877  27.591412  0.912103  159.152983  25.076483  -179.639312  -26.958635  24.046353  100.531173  65.653038  12.242353  5.31589  6.637759  -1.516672  7.841381  -119.228906  71.236969  -164.513021  -58.605382  31.823352  -101.692486  72.4183  -5.552371  41.912179  -20.144045  7.315032  10.37221  -15.217176  5.153082  8.021216  
0.0  93.25843  0.0  -2.526282  9.239318  -87.742  3.025529  -15.828953  -9.613183  -8.715063  0.530441  13.826849  10.183766  0.697817  5.989257  -19.622778  3.537233  -7.030187  -8.417065  6.671412  7.686923  3.992541  2.102691  0.802674  3.51895  -0.690509  -0.856963  9.643897  -1.758044  -2.437599  9.643898  -1.758044  -2.437599  -2.37579  26.710764  2.71596  162.711084  23.759253  179.858579  -32.521368  31.260519  97.272056  61.86799  10.15091  2.825905  6.886006  -0.814444  6.581864  -128.665257  67.5828  -173.571768  -60.756009  35.656557  -98.786459  73.666157  -7.040521  42.879422  -20.335353  7.13206  10.857725  -15.364589  4.996456  8.382201  
0.0  93.25843  0.0  -2.478076  7.325878  -87.37543  3.187878  -15.629863  -9.140464  -7.765675  0.089559  13.339969  10.631106  0.938366  6.095458  -19.376888  3.386918  -7.843178  -7.884433  6.727153  7.981755  4.233474  2.101868  0.788565  3.857344  -0.532015  -0.976247  10.564429  -1.294255  -2.745715  10.564429  -1.294255  -2.745715  -1.267994  25.696112  4.348946  165.930682  22.230953  179.310623  -37.416848  35.96659  93.755664  55.890142  2.648994  1.565627  7.391484  0.138674  5.776953  -135.504222  63.430692  -179.266039  -62.635215  38.512338  -96.102067  75.978016  -9.698177  41.073004  -20.342328  6.932224  11.377665  -15.373809  4.829017  8.766107  
0.0  93.25843  0.0  -2.698399  5.51171  -86.847905  3.21269  -15.62341  -8.944122  -6.880171  -0.346689  12.900117  11.162835  1.122045  6.257899  -19.241337  2.745726  -8.687849  -6.815059  6.962386  8.304533  4.318586  2.037044  0.748873  4.185096  -0.392383  -1.125219  11.455581  -0.874299  -3.133029  11.455581  -0.874299  -3.133029  -0.113385  24.516244  5.60386  168.642041  20.080354  178.92025  -41.213344  38.608322  91.140583  54.102377  -1.464161  6.114018  10.320954  -0.068094  5.916124  -142.402862  57.983799  178.261686  -63.860011  40.57289  -93.825812  77.313018  -12.059031  39.342094  -20.339536  6.677639  11.870268  -15.374244  4.621502  9.127749  
0.0  93.25843  0.0  -3.123871  3.228669  -86.674732  3.733967  -15.971029  -8.475912  -5.925268  -0.610424  12.589163  11.616851  1.27965  6.374519  -18.784657  1.984996  -9.095654  -6.041122  7.091055  8.430577  4.509807  2.013037  0.740038  4.661783  -0.321927  -1.269482  12.755752  -0.631904  -3.517197  12.755752  -0.631904  -3.517197  0.339103  23.406266  6.603704  171.044889  17.377009  178.439664  -40.328665  41.13058  92.59798  54.969095  -6.529025  4.79069  10.308884  0.29254  5.611964  -145.728603  53.858144  176.916476  -63.985018  42.166477  -91.351699  77.07428  -12.22322  39.6168  -20.651982  6.356621  12.420185  -15.610177  4.355916  9.534092  
0.0  93.25843  0.0  -3.107479  1.197778  -86.511071  4.286965  -15.915693  -7.973847  -4.796689  -0.857619  12.507511  11.813472  1.410367  6.350291  -18.601725  1.762509  -9.548846  -5.072864  7.048724  8.557264  4.552667  2.023437  0.697504  5.086296  -0.197807  -1.401489  13.909038  -0.243976  -3.852874  13.909039  -0.243976  -3.852874  1.263663  22.690858  7.945284  172.391646  15.721329  178.584428  -38.208205  41.019178  95.209556  55.114972  -6.988286  2.02629  9.996521  0.579304  5.798278  -147.051522  50.417489  177.260653  -63.811645  42.422717  -90.379916  75.772719  -12.07393  39.919584  -20.908742  6.037735  12.983876  -15.803996  4.092017  9.949966  
0.0  93.25843  0.0  -3.016443  -0.408317  -86.269329  4.565176  -15.779492  -7.689864  -3.945808  -1.029376  12.296314  12.117339  1.50143  6.451643  -19.017553  1.645254  -10.086962  -4.16445  6.864923  8.609035  4.738907  2.032404  0.659315  5.405055  -0.098056  -1.500621  14.773717  0.067727  -4.100127  14.773716  0.067727  -4.100127  2.099705  22.731731  8.957744  173.237744  14.741407  179.136689  -36.719534  39.935192  96.907805  56.146951  -7.161803  0.738183  9.721855  0.991379  6.122849  -146.364904  47.721876  178.795906  -62.347787  41.304472  -89.597526  75.898179  -11.962128  39.465548  -21.132467  5.828296  13.321665  -15.971929  3.918348  10.199268  
0.0  93.25843  0.0  -3.997204  -1.700188  -85.80769  5.021343  -16.728485  -7.770124  -3.061135  -1.162701  12.150654  12.295012  1.55933  6.506968  -19.35335  0.547041  -10.305071  -4.363495  6.496124  8.301995  5.160887  2.230893  0.632051  6.02223  -0.208965  -1.479053  16.466912  -0.200287  -4.065914  16.466912  -0.200287  -4.065914  -0.184727  23.803744  7.596899  173.356065  12.925708  179.324166  -34.981667  39.130207  97.724066  56.910317  -10.147378  0.83782  7.928499  1.94353  5.832733  -145.589901  45.439756  -179.440799  -61.022294  40.614789  -89.140578  77.994324  -12.494187  37.954964  -22.762992  5.757708  12.895544  -17.188598  3.846271  9.894961  
0.0  93.25843  0.0  -4.43349  -2.566252  -85.634624  5.210108  -17.173948  -7.588327  -2.347294  -1.296759  11.948068  12.39969  1.624932  6.581509  -19.53068  0.126132  -10.277721  -4.067616  6.327446  8.112217  5.424984  2.174236  0.661629  6.168961  -0.224427  -1.497079  16.868765  -0.228586  -4.118585  16.868766  -0.228586  -4.118585  0.188527  23.87336  6.380288  173.209839  11.037162  179.552138  -34.364741  42.145581  99.098814  61.482966  -10.196223  1.565598  7.921748  2.102558  6.063464  -143.93117  43.647042  -177.830541  -60.510012  41.438254  -89.044789  79.364904  -13.058759  36.37721  -22.841029  5.732749  12.986445  -17.247687  3.822518  9.963172  
0.0  93.25843  0.0  -4.110045  -3.800626  -85.779253  5.954517  -16.784935  -7.162348  -1.53748  -1.534313  12.003277  12.423672  1.638978  6.666784  -18.677004  0.522285  -10.177895  -4.117703  6.255747  7.944699  5.486126  2.128113  0.70559  6.3036  -0.186909  -1.527095  17.234174  -0.110673  -4.190135  17.234171  -0.110673  -4.190135  0.817873  23.980722  5.491477  173.813651  11.193994  179.868335  -34.696858  42.117265  99.754799  61.050276  -7.602031  2.224458  8.50364  2.31338  7.043568  -142.364815  42.528569  -176.45829  -60.476071  42.974781  -89.15222  78.766973  -13.308126  35.138135  -22.580119  5.951169  13.515036  -17.061567  3.972736  10.364576  
0.0  93.25843  0.0  -3.726047  -5.407355  -85.908694  7.460716  -16.30536  -6.870777  -1.336647  -1.740479  11.879669  12.321081  1.672659  6.711144  -16.963048  0.908399  -10.145853  -4.26943  6.308386  7.933934  5.387248  2.118529  0.749254  6.475292  -0.180934  -1.61596  17.702562  -0.059907  -4.428963  17.70256  -0.059907  -4.428964  1.198735  24.280961  4.81779  174.610104  12.333473  -179.675005  -33.745875  39.944596  100.018303  57.516918  -7.420402  1.724809  9.38173  2.700491  8.128441  -141.843419  42.228963  -175.950721  -60.569146  43.008261  -89.176885  78.011669  -13.008956  34.79671  -22.120656  6.368635  14.275462  -16.733299  4.269208  10.943951  
0.0  93.25843  0.0  -3.908785  -6.747158  -85.643978  9.191226  -16.343055  -6.962781  -1.563998  -1.921687  11.622513  12.210349  1.718955  6.733688  -15.486547  0.576812  -10.314961  -4.555843  6.418526  7.981557  5.445206  2.121999  0.847175  6.63812  -0.245281  -1.756638  18.151486  -0.184839  -4.827107  18.151484  -0.184839  -4.827107  1.333802  24.080219  3.890098  173.760369  12.364752  -179.677893  -32.996473  38.416443  100.417864  55.293012  -8.049931  0.538651  10.071943  3.056116  9.025812  -142.213348  42.087291  -176.036478  -60.857247  41.754228  -89.204111  78.329466  -12.75602  35.295914  -21.664071  6.773354  14.985572  -16.407333  4.558972  11.484276  
0.0  93.25843  0.0  -4.153002  -7.368981  -85.610018  10.155664  -16.515538  -6.743327  -1.976185  -2.063893  11.256938  12.178693  1.747665  6.753278  -14.99232  0.191053  -10.25076  -4.519989  6.531434  8.146761  5.273015  2.204749  0.857824  6.659778  -0.307954  -1.825948  18.215303  -0.333963  -5.032058  18.215304  -0.333963  -5.032058  1.292325  23.829926  3.255261  172.15191  12.086333  -179.649638  -33.276745  38.06503  99.660348  55.097904  -8.146908  -0.345928  10.919252  2.976108  9.541846  -142.421265  41.981538  -176.165472  -60.810446  41.175236  -89.178378  78.717165  -12.590033  35.718757  -21.115864  6.978843  15.563236  -16.007861  4.706863  11.916994  
